<?xml version="1.0" encoding="UTF-8" standalone="no"?>
<svg
   xmlns:dc="http://purl.org/dc/elements/1.1/"
   xmlns:cc="http://creativecommons.org/ns#"
   xmlns:rdf="http://www.w3.org/1999/02/22-rdf-syntax-ns#"
   xmlns:svg="http://www.w3.org/2000/svg"
   xmlns="http://www.w3.org/2000/svg"
   height="24"
   width="24"
   id="svg2"
   xml:space="preserve"
   enable-background="new 0 0 20 20"
   viewBox="0 0 24 24"
   y="0px"
   x="0px"
   version="1.1"><metadata
     id="metadata20"><rdf:RDF><cc:Work
         rdf:about=""><dc:format>image/svg+xml</dc:format><dc:type
           rdf:resource="http://purl.org/dc/dcmitype/StillImage" /><dc:title></dc:title></cc:Work></rdf:RDF></metadata><defs
     id="defs18" /><path
     d="m 18,2 -2,0 0,16.2 -1.6,-1.6 -1.4,1.4 4,4 4,-4 -1.4,-1.4 -1.6,1.6 z m -15,20 8,0 0,-8 -8,0 0,8 z m 2,-6 4,0 0,4 -4,0 0,-4 z m -2,-6 8,0 0,-8 -8,0 0,8 z M 5,4 9,4 9,8 5,8 5,4 Z"
     style="fill:#000000"
     id="polygon10" /></svg>